0
SECTION
2
HEADER
9
$INSUNITS
70
4
9
$ACADVER
1
AC1014
9
$HANDSEED
5
FFFF
0
ENDSEC
0
SECTION
2
TABLES
0
TABLE
2
VPORT
5
8
100
AcDbSymbolTable
0
ENDTAB
0
TABLE
2
LTYPE
5
5
100
AcDbSymbolTable
0
LTYPE
5
14
100
AcDbSymbolTableRecord
100
AcDbLinetypeTableRecord
2
BYBLOCK
70
0
0
LTYPE
5
15
100
AcDbSymbolTableRecord
100
AcDbLinetypeTableRecord
2
BYLAYER
70
0
0
ENDTAB
0
TABLE
2
LAYER
5
2
100
AcDbSymbolTable
70
2
0
LAYER
5
50
100
AcDbSymbolTableRecord
100
AcDbLayerTableRecord
2
0
70
0
6
CONTINUOUS
0
ENDTAB
0
TABLE
2
STYLE
5
3
100
AcDbSymbolTable
70
1
0
STYLE
5
11
100
AcDbSymbolTableRecord
100
AcDbTextStyleTableRecord
2
STANDARD
70
0
0
ENDTAB
0
TABLE
2
VIEW
5
6
100
AcDbSymbolTable
70
0
0
ENDTAB
0
TABLE
2
UCS
5
7
100
AcDbSymbolTable
70
0
0
ENDTAB
0
TABLE
2
APPID
5
9
100
AcDbSymbolTable
70
2
0
APPID
5
12
100
AcDbSymbolTableRecord
100
AcDbRegAppTableRecord
2
ACAD
70
0
0
ENDTAB
0
TABLE
2
DIMSTYLE
5
A
100
AcDbSymbolTable
70
1
0
ENDTAB
0
TABLE
2
BLOCK_RECORD
5
1
100
AcDbSymbolTable
70
1
0
BLOCK_RECORD
5
1F
100
AcDbSymbolTableRecord
100
AcDbBlockTableRecord
2
*MODEL_SPACE
0
BLOCK_RECORD
5
1B
100
AcDbSymbolTableRecord
100
AcDbBlockTableRecord
2
*PAPER_SPACE
0
ENDTAB
0
ENDSEC
0
SECTION
2
BLOCKS
0
BLOCK
5
20
100
AcDbEntity
100
AcDbBlockBegin
2
*MODEL_SPACE
0
ENDBLK
5
21
100
AcDbEntity
100
AcDbBlockEnd
0
BLOCK
5
1C
100
AcDbEntity
100
AcDbBlockBegin
2
*PAPER_SPACE
0
ENDBLK
5
1D
100
AcDbEntity
100
AcDbBlockEnd
0
ENDSEC
0
SECTION
2
ENTITIES
0
CIRCLE
5
100
100
AcDbEntity
8
0
100
AcDbCircle
10
69.623775528158944
20
37.938936290515095
30
0
40
2.0000000000000018
0
LWPOLYLINE
5
101
100
AcDbEntity
8
0
100
AcDbPolyline
90
50
70
1
43
0.0
10
60
20
60
10
60
20
63
10
77.299999999999997
20
63
10
77.299999999999997
20
61.000000000000014
10
80.299999999999997
20
61.000000000000014
10
80.299999999999997
20
53.000000000000007
10
77.299999999999997
20
53.000000000000007
10
77.299999999999997
20
49
10
80.299999999999997
20
49
10
80.299999999999997
20
45
10
77.299999999999997
20
45
10
77.299999999999997
20
37
10
80.299999999999997
20
37
10
80.299999999999997
20
30.999999999999996
10
77.299999999999997
20
30.999999999999996
10
77.299999999999997
20
26.999999999999996
10
80.299999999999997
20
26.999999999999996
10
80.299999999999997
20
19.999999999999996
10
77.299999999999997
20
19.999999999999996
10
77.299999999999997
20
23
10
70
20
23
10
70
20
19.999999999999996
10
50
20
19.999999999999996
10
50
20
23
10
30
20
23
10
30
20
19.999999999999996
10
10
20
19.999999999999996
10
10
20
23
10
0
20
23
10
0
20
30.999999999999996
10
3.0000000000000004
20
30.999999999999996
10
3.0000000000000004
20
37
10
0
20
37
10
0
20
41
10
3.0000000000000004
20
41
10
3.0000000000000004
20
45
10
0
20
45
10
0
20
49
10
3.0000000000000004
20
49
10
3.0000000000000004
20
53.000000000000007
10
0
20
53.000000000000007
10
0
20
61.000000000000014
10
3.0000000000000004
20
61.000000000000014
10
3.0000000000000004
20
63
10
10
20
63
10
10
20
60
10
30
20
60
10
30
20
63
10
40
20
63
10
40
20
60
0
ARC
5
102
100
AcDbEntity
8
0
100
AcDbCircle
10
40.060484192041763
20
37.999999999999993
30
0
40
4.5000000000000036
100
AcDbArc
50
88.475014962022868
51
271.52498503797693
0
ARC
5
103
100
AcDbEntity
8
0
100
AcDbCircle
10
40.299999999999997
20
38
30
0
40
4.5000000000000089
100
AcDbArc
50
-91.524985037977402
51
91.524985037977217
0
ENDSEC
0
SECTION
2
OBJECTS
0
DICTIONARY
5
C
100
AcDbDictionary
3
ACAD_GROUP
350
D
3
ACAD_MLINESTYLE
350
17
0
DICTIONARY
5
D
100
AcDbDictionary
0
DICTIONARY
5
1A
330
C
100
AcDbDictionary
0
DICTIONARY
5
17
100
AcDbDictionary
0
ENDSEC
0
EOF
